<svg width="170" height="63" viewBox="0 0 170 63" fill="none" xmlns="http://www.w3.org/2000/svg">
<path d="M26.3633 15.104C26.0646 12.8427 25.446 10.88 24.5073 9.216C23.5686 7.50933 22.31 6.208 20.7313 5.312C19.1953 4.37333 17.3393 3.904 15.1633 3.904C13.0726 3.904 11.3233 4.50133 9.91529 5.696C8.54996 6.89067 7.86729 8.36267 7.86729 10.112C7.86729 11.5627 8.27262 12.8213 9.08329 13.888C9.93662 14.9547 11.1526 15.936 12.7313 16.832C14.31 17.6853 16.1873 18.5813 18.3633 19.52C19.9846 20.2027 21.6273 20.9707 23.2913 21.824C24.9553 22.6347 26.4913 23.616 27.8993 24.768C29.3073 25.92 30.438 27.264 31.2913 28.8C32.1873 30.2933 32.6353 32.0853 32.6353 34.176C32.6353 36.6507 31.974 38.848 30.6513 40.768C29.3713 42.688 27.5366 44.1813 25.1473 45.248C22.758 46.3147 19.942 46.848 16.6993 46.848C14.9073 46.848 13.0086 46.5707 11.0033 46.016C8.99796 45.504 7.16329 44.7147 5.49929 43.648L5.69129 46.4H1.33929L1.21129 31.872H4.85929C5.32862 35.4987 6.67262 38.2507 8.89129 40.128C11.11 41.9627 13.7766 42.88 16.8913 42.88C18.47 42.88 19.878 42.6027 21.1153 42.048C22.3526 41.4507 23.3126 40.6613 23.9953 39.68C24.7206 38.656 25.0833 37.504 25.0833 36.224C25.0833 34.56 24.5713 33.1947 23.5473 32.128C22.5233 31.0613 21.222 30.144 19.6433 29.376C18.0646 28.608 16.422 27.8613 14.7153 27.136C12.7953 26.3253 10.982 25.472 9.27529 24.576C7.56862 23.6373 6.05396 22.592 4.73129 21.44C3.45129 20.2453 2.42729 18.88 1.65929 17.344C0.933956 15.808 0.571289 13.9947 0.571289 11.904C0.571289 10.6667 0.805956 9.36533 1.27529 8C1.74462 6.592 2.51262 5.29067 3.57929 4.096C4.68862 2.90133 6.16062 1.92 7.99529 1.152C9.82996 0.384 12.1126 0 14.8433 0C16.55 0 18.406 0.255999 20.4113 0.767998C22.4593 1.23733 24.2513 2.02667 25.7873 3.136L25.5313 0.447998H29.9473V15.104H26.3633Z" fill="#9F9F9F"/>
<path d="M36.5458 62.144V58.752C37.7831 58.752 38.6578 58.4747 39.1698 57.92C39.7245 57.408 40.0658 56.6613 40.1938 55.68C40.3218 54.6987 40.3858 53.5893 40.3858 52.352L40.4498 24C40.4498 23.232 40.4498 22.4213 40.4498 21.568C40.4925 20.7147 40.5778 19.84 40.7058 18.944C39.9805 18.9867 39.1698 19.0293 38.2738 19.072C37.4205 19.1147 36.7165 19.1573 36.1618 19.2V15.04C38.1245 15.04 39.7031 14.9547 40.8978 14.784C42.1351 14.5707 43.0738 14.3147 43.7138 14.016C44.3965 13.7173 44.8871 13.44 45.1858 13.184H47.9378C48.0231 13.6107 48.0871 14.1227 48.1298 14.72C48.1725 15.3173 48.2151 15.872 48.2578 16.384C49.6658 15.1467 51.1591 14.2507 52.7378 13.696C54.3165 13.0987 55.8311 12.8 57.2818 12.8C59.8418 12.8 62.1245 13.4613 64.1298 14.784C66.1351 16.064 67.7138 17.92 68.8658 20.352C70.0178 22.7413 70.5938 25.5787 70.5938 28.864C70.5938 32.3627 69.8898 35.4773 68.4818 38.208C67.1165 40.896 65.2391 43.008 62.8498 44.544C60.4605 46.08 57.7085 46.848 54.5938 46.848C53.3138 46.848 52.1618 46.6987 51.1378 46.4C50.1138 46.144 49.1538 45.8027 48.2578 45.376V52.992C48.2578 53.6747 48.2365 54.4853 48.1938 55.424C48.1938 56.4053 48.1298 57.344 48.0018 58.24C48.6845 58.1547 49.4098 58.0907 50.1778 58.048C50.9458 58.048 51.5858 58.048 52.0978 58.048V62.144H36.5458ZM53.8898 42.816C55.8525 42.7733 57.4311 42.176 58.6258 41.024C59.8631 39.8293 60.7591 38.2507 61.3138 36.288C61.8685 34.3253 62.1458 32.192 62.1458 29.888C62.1458 27.7973 61.8685 25.8133 61.3138 23.936C60.8018 22.0587 59.9698 20.544 58.8178 19.392C57.6658 18.24 56.1298 17.664 54.2098 17.664C53.0151 17.7067 51.8845 18.0053 50.8178 18.56C49.7938 19.1147 48.9405 19.84 48.2578 20.736C48.2578 21.6747 48.2578 22.6347 48.2578 23.616C48.2578 24.5973 48.2578 25.6427 48.2578 26.752C48.2578 27.8613 48.2578 29.12 48.2578 30.528C48.2578 31.8933 48.2578 33.4507 48.2578 35.2C48.2578 36.9493 48.2578 38.9547 48.2578 41.216C48.9405 41.6853 49.7725 42.0693 50.7538 42.368C51.7351 42.6667 52.7805 42.816 53.8898 42.816Z" fill="#9F9F9F"/>
<path d="M93.9288 45.824C93.8008 45.184 93.7155 44.6507 93.6728 44.224C93.6728 43.7547 93.6515 43.2213 93.6088 42.624C92.1581 44.0747 90.6008 45.1413 88.9368 45.824C87.3155 46.5067 85.6301 46.848 83.8808 46.848C80.9795 46.848 78.7395 46.0587 77.1608 44.48C75.6248 42.9013 74.8568 40.96 74.8568 38.656C74.8568 36.608 75.4115 34.88 76.5208 33.472C77.6301 32.0213 79.0808 30.848 80.8728 29.952C82.6648 29.0133 84.6488 28.3093 86.8248 27.84C89.0008 27.328 91.1555 27.0507 93.2888 27.008V23.488C93.2888 22.2507 93.1395 21.12 92.8408 20.096C92.5848 19.0293 92.0941 18.1973 91.3688 17.6C90.6435 16.96 89.5768 16.64 88.1688 16.64C87.2301 16.6827 86.2701 16.896 85.2888 17.28C84.3501 17.6213 83.6035 18.176 83.0488 18.944C83.3901 19.328 83.6035 19.7547 83.6888 20.224C83.7741 20.6507 83.8168 21.0347 83.8168 21.376C83.8168 22.144 83.5181 22.9547 82.9208 23.808C82.3235 24.6187 81.3635 25.0027 80.0408 24.96C78.8888 24.9173 77.9928 24.512 77.3528 23.744C76.7555 22.976 76.4568 22.0587 76.4568 20.992C76.4568 19.3707 77.0328 17.9627 78.1848 16.768C79.3795 15.5307 80.9795 14.5707 82.9848 13.888C84.9901 13.1627 87.2301 12.8 89.7048 12.8C93.3741 12.8 96.1901 13.76 98.1528 15.68C100.115 17.6 101.075 20.672 101.033 24.896C101.033 26.3893 101.033 27.7547 101.033 28.992C101.033 30.1867 101.011 31.4027 100.969 32.64C100.969 33.8347 100.969 35.1787 100.969 36.672C100.969 37.312 100.947 38.1227 100.905 39.104C100.862 40.0427 100.798 40.9813 100.713 41.92C101.481 41.8347 102.249 41.792 103.017 41.792C103.827 41.7493 104.489 41.7067 105.001 41.664V45.824H93.9288ZM93.2248 30.784C91.9448 30.8693 90.6861 31.0827 89.4488 31.424C88.2115 31.7227 87.1021 32.1493 86.1208 32.704C85.1395 33.2587 84.3501 33.9627 83.7528 34.816C83.1981 35.6267 82.9421 36.5653 82.9848 37.632C83.0275 38.9547 83.4541 39.936 84.2648 40.576C85.0755 41.1733 86.0141 41.472 87.0808 41.472C88.3181 41.472 89.4275 41.216 90.4088 40.704C91.4328 40.192 92.3715 39.5093 93.2248 38.656C93.2248 38.2293 93.2248 37.7813 93.2248 37.312C93.2248 36.8427 93.2248 36.3733 93.2248 35.904C93.2248 35.3067 93.2248 34.56 93.2248 33.664C93.2248 32.768 93.2248 31.808 93.2248 30.784Z" fill="#9F9F9F"/>
<path d="M121.103 46.848C119.909 46.848 118.735 46.6987 117.583 46.4C116.474 46.1013 115.45 45.5467 114.511 44.736C113.615 43.9253 112.89 42.7307 112.335 41.152C111.781 39.5307 111.503 37.3973 111.503 34.752L111.631 18.24L107.087 18.304V13.824C108.367 13.7813 109.605 13.3547 110.799 12.544C111.994 11.6907 113.039 10.5813 113.935 9.216C114.831 7.85067 115.429 6.4 115.727 4.864H119.631L119.567 13.824H128.591V17.92L119.567 18.112L119.503 34.56C119.503 35.84 119.61 37.0347 119.823 38.144C120.079 39.2107 120.506 40.064 121.103 40.704C121.743 41.344 122.597 41.664 123.663 41.664C124.474 41.664 125.391 41.408 126.415 40.896C127.482 40.384 128.549 39.36 129.615 37.824L132.239 40.192C131.173 41.8133 130.063 43.072 128.911 43.968C127.802 44.864 126.714 45.5253 125.647 45.952C124.623 46.3787 123.706 46.6347 122.895 46.72C122.085 46.8053 121.487 46.848 121.103 46.848Z" fill="#9F9F9F"/>
<path d="M147.81 46.848C145.336 46.848 143.309 46.3787 141.73 45.44C140.194 44.5013 139.064 43.008 138.338 40.96C137.613 38.8693 137.25 36.1387 137.25 32.768V24.064C137.25 23.3387 137.272 22.528 137.314 21.632C137.357 20.736 137.4 19.84 137.442 18.944C136.76 18.9867 135.992 19.0293 135.138 19.072C134.285 19.072 133.581 19.0933 133.026 19.136V15.04H134.114C136.461 15.04 138.274 14.848 139.554 14.464C140.877 14.0373 141.773 13.6107 142.242 13.184H145.186V32.768C145.186 35.84 145.592 38.1227 146.402 39.616C147.256 41.1093 148.621 41.856 150.498 41.856C151.778 41.8133 153.037 41.4293 154.274 40.704C155.554 39.9787 156.578 39.1253 157.346 38.144V24.32C157.346 23.4667 157.368 22.592 157.41 21.696C157.453 20.7573 157.517 19.84 157.602 18.944C156.92 18.9867 156.13 19.0293 155.234 19.072C154.381 19.072 153.677 19.0933 153.122 19.136V15.04H154.786C156.749 15.04 158.37 14.8267 159.65 14.4C160.973 13.9733 161.848 13.568 162.274 13.184H165.218V36.16C165.218 36.7573 165.197 37.632 165.154 38.784C165.112 39.936 165.048 40.9813 164.962 41.92C165.688 41.8347 166.456 41.792 167.266 41.792C168.077 41.7493 168.738 41.7067 169.25 41.664V45.824H158.114C158.029 45.2267 157.944 44.6293 157.858 44.032C157.816 43.4347 157.773 42.8587 157.73 42.304C156.408 43.4987 154.914 44.5653 153.25 45.504C151.629 46.4 149.816 46.848 147.81 46.848Z" fill="#9F9F9F"/>
</svg>
