<svg width="206" height="51" viewBox="0 0 206 51" fill="none" xmlns="http://www.w3.org/2000/svg">
<path d="M40.3787 44.864C41.0187 45.8453 41.68 46.6347 42.3627 47.232C43.0453 47.8293 43.92 48.3413 44.9867 48.768V50.048C42 49.92 38.672 49.856 35.0027 49.856C32.1867 49.856 29.4773 49.92 26.8747 50.048V48.768C28.0693 48.6827 28.9227 48.5547 29.4347 48.384C29.9893 48.2133 30.2667 47.9147 30.2667 47.488C30.2667 47.1467 30.032 46.6133 29.5627 45.888L20.2827 30.848C19.4293 29.4827 18.704 28.5653 18.1067 28.096C17.552 27.6267 16.784 27.3493 15.8027 27.264V43.264C15.8027 44.8853 15.9093 46.0587 16.1227 46.784C16.3787 47.5093 16.8267 48 17.4667 48.256C18.1067 48.512 19.152 48.6827 20.6027 48.768V50.048C18.2987 49.92 15.0773 49.856 10.9387 49.856C6.37333 49.856 3.00266 49.92 0.82666 50.048V48.768C2.23466 48.6827 3.25866 48.512 3.89866 48.256C4.58133 48 5.02933 47.5093 5.24266 46.784C5.49866 46.0587 5.62666 44.8853 5.62666 43.264V11.52C5.62666 9.89867 5.49866 8.72534 5.24266 8C5.02933 7.27467 4.58133 6.784 3.89866 6.528C3.25866 6.272 2.23466 6.10134 0.82666 6.016V4.736C3.00266 4.864 6.37333 4.928 10.9387 4.928C15.0773 4.928 18.2987 4.864 20.6027 4.736V6.016C19.152 6.10134 18.1067 6.272 17.4667 6.528C16.8267 6.784 16.3787 7.27467 16.1227 8C15.9093 8.72534 15.8027 9.89867 15.8027 11.52V25.92C17.5093 25.8347 19.0667 25.3227 20.4747 24.384C21.8827 23.4453 23.4827 21.952 25.2747 19.904L29.0507 15.36C31.0133 13.0987 31.9947 11.1147 31.9947 9.408C31.9947 8.384 31.568 7.57334 30.7147 6.976C29.904 6.37867 28.752 6.03734 27.2587 5.952V4.736C30.3733 4.864 33.5307 4.928 36.7307 4.928C39.2053 4.928 41.2107 4.864 42.7467 4.736V5.952C39.3333 6.76267 36.24 8.81067 33.4667 12.096L25.4667 21.632L40.3787 44.864Z" fill="#9F9F9F"/>
<path d="M54.3222 50.496C51.5915 50.496 49.5435 49.792 48.1782 48.384C46.8555 46.976 46.1942 45.12 46.1942 42.816C46.1942 40.896 46.6848 39.3173 47.6662 38.08C48.6902 36.8 49.9062 35.8187 51.3142 35.136C52.7648 34.4533 54.5995 33.728 56.8182 32.96C59.1648 32.1493 60.8715 31.424 61.9382 30.784C63.0475 30.1013 63.6022 29.184 63.6022 28.032V23.04C63.6022 21.248 63.1755 19.8613 62.3222 18.88C61.5115 17.856 60.2315 17.344 58.4822 17.344C56.4342 17.344 54.8768 17.856 53.8102 18.88C55.0048 19.3067 55.9222 19.9467 56.5622 20.8C57.2448 21.6533 57.5862 22.656 57.5862 23.808C57.5862 25.2587 57.0955 26.4107 56.1142 27.264C55.1328 28.1173 53.9382 28.544 52.5302 28.544C51.0368 28.544 49.8848 28.0747 49.0742 27.136C48.2635 26.1973 47.8582 25.024 47.8582 23.616C47.8582 22.4213 48.1355 21.4187 48.6902 20.608C49.2875 19.7547 50.1835 18.9653 51.3782 18.24C52.5302 17.5573 53.9382 17.024 55.6022 16.64C57.3088 16.256 59.1648 16.064 61.1702 16.064C63.2608 16.064 65.0742 16.2773 66.6102 16.704C68.1462 17.1307 69.4262 17.856 70.4502 18.88C71.3888 19.8187 72.0075 20.9707 72.3062 22.336C72.6475 23.7013 72.8182 25.5573 72.8182 27.904V45.312C72.8182 46.336 72.9035 47.0613 73.0742 47.488C73.2875 47.9147 73.6715 48.128 74.2262 48.128C74.8662 48.128 75.6342 47.7653 76.5302 47.04L77.1702 48.128C75.2502 49.7067 72.9035 50.496 70.1302 50.496C67.7835 50.496 66.1408 50.0267 65.2022 49.088C64.2635 48.1493 63.7728 46.8907 63.7302 45.312C61.5968 48.768 58.4608 50.496 54.3222 50.496ZM59.2502 46.4C60.9142 46.4 62.3648 45.5253 63.6022 43.776V30.656C63.0902 31.5093 62.0022 32.448 60.3382 33.472C58.6742 34.5387 57.4155 35.6053 56.5622 36.672C55.7088 37.7387 55.2822 39.2747 55.2822 41.28C55.2822 43.0293 55.6448 44.3307 56.3702 45.184C57.0955 45.9947 58.0555 46.4 59.2502 46.4Z" fill="#9F9F9F"/>
<path d="M91.9912 16.96H99.5432V18.24H91.9912V44.096C91.9912 45.376 92.2045 46.2933 92.6312 46.848C93.1005 47.36 93.8258 47.616 94.8072 47.616C96.6418 47.616 98.0925 46.336 99.1592 43.776L100.247 44.352C98.6258 48.7467 95.7032 50.944 91.4792 50.944C88.6632 50.944 86.5298 50.2187 85.0792 48.768C84.1832 47.872 83.5645 46.7627 83.2232 45.44C82.9245 44.0747 82.7752 42.2187 82.7752 39.872V18.24H77.3992V16.96H82.7752V8.512C86.3165 8.512 89.3885 7.82933 91.9912 6.464V16.96Z" fill="#9F9F9F"/>
<path d="M114.491 22.016C116.411 18.048 119.888 16.064 124.923 16.064C128.251 16.064 130.598 16.896 131.963 18.56C132.689 19.3707 133.201 20.4373 133.499 21.76C133.84 23.04 134.011 24.7467 134.011 26.88V44.096C134.011 45.8453 134.31 47.0613 134.907 47.744C135.505 48.384 136.571 48.704 138.107 48.704V50.048C133.67 49.8773 130.854 49.792 129.659 49.792C128.208 49.792 125.435 49.8773 121.339 50.048V48.704C122.619 48.704 123.515 48.384 124.027 47.744C124.539 47.0613 124.795 45.8453 124.795 44.096V24.192C124.795 22.4427 124.496 21.12 123.899 20.224C123.344 19.328 122.32 18.88 120.827 18.88C119.035 18.88 117.521 19.584 116.283 20.992C115.089 22.3573 114.491 24.1067 114.491 26.24V44.096C114.491 45.8453 114.747 47.0613 115.259 47.744C115.771 48.384 116.667 48.704 117.947 48.704V50.048C113.851 49.8773 111.206 49.792 110.011 49.792C108.56 49.792 105.616 49.8773 101.179 50.048V48.704C102.672 48.704 103.718 48.384 104.315 47.744C104.955 47.0613 105.275 45.8453 105.275 44.096V7.68C105.275 5.71734 104.955 4.288 104.315 3.392C103.718 2.496 102.672 2.048 101.179 2.048V0.704002C102.544 0.832003 103.867 0.896004 105.147 0.896004C108.859 0.896004 111.974 0.597336 114.491 0V22.016Z" fill="#9F9F9F"/>
<path d="M156.949 16.064C161.855 16.064 165.695 17.472 168.469 20.288C171.242 23.0613 172.629 27.4773 172.629 33.536C172.629 39.5947 171.242 44.0107 168.469 46.784C165.695 49.5573 161.855 50.944 156.949 50.944C152.085 50.944 148.245 49.5573 145.429 46.784C142.655 44.0107 141.269 39.5947 141.269 33.536C141.269 27.4773 142.655 23.0613 145.429 20.288C148.245 17.472 152.085 16.064 156.949 16.064ZM156.949 17.344C155.114 17.344 153.642 18.688 152.533 21.376C151.466 24.0213 150.933 28.0747 150.933 33.536C150.933 38.9973 151.466 43.0507 152.533 45.696C153.642 48.3413 155.114 49.664 156.949 49.664C158.826 49.664 160.298 48.3627 161.365 45.76C162.431 43.1147 162.965 39.04 162.965 33.536C162.965 28.032 162.41 23.9573 161.301 21.312C160.234 18.6667 158.783 17.344 156.949 17.344Z" fill="#9F9F9F"/>
<path d="M193.264 16.064C194.843 16.064 196.336 16.2347 197.744 16.576C199.152 16.9173 200.326 17.3867 201.264 17.984C202.373 18.6667 203.227 19.5413 203.824 20.608C204.464 21.632 204.784 22.7627 204.784 24C204.784 25.4933 204.315 26.7307 203.376 27.712C202.438 28.6507 201.221 29.12 199.728 29.12C198.235 29.12 197.04 28.6933 196.144 27.84C195.248 26.9867 194.8 25.8347 194.8 24.384C194.8 23.104 195.205 21.9947 196.016 21.056C196.827 20.1173 197.829 19.4773 199.024 19.136C198.683 18.6667 198.15 18.304 197.424 18.048C196.742 17.7493 195.995 17.6 195.184 17.6C192.624 17.6 190.619 19.008 189.168 21.824C187.76 24.5973 187.056 28.2453 187.056 32.768C187.056 37.3333 187.867 40.6187 189.488 42.624C191.109 44.6293 193.136 45.632 195.568 45.632C197.019 45.632 198.469 45.248 199.92 44.48C201.413 43.712 202.757 42.368 203.952 40.448L205.04 40.832C204.187 43.6053 202.693 45.9947 200.56 48C198.427 49.9627 195.675 50.944 192.304 50.944C187.91 50.944 184.325 49.4933 181.552 46.592C178.779 43.6907 177.392 39.3813 177.392 33.664C177.392 29.9093 178.075 26.7093 179.44 24.064C180.805 21.4187 182.683 19.4347 185.072 18.112C187.461 16.7467 190.192 16.064 193.264 16.064Z" fill="#9F9F9F"/>
</svg>
