<svg width="174" height="49" viewBox="0 0 174 49" fill="none" xmlns="http://www.w3.org/2000/svg">
<path d="M6.04004 30.1875V48H0.0400391V2.5H16.8213C21.8005 2.5 25.6963 3.77083 28.5088 6.3125C31.3421 8.85417 32.7588 12.2188 32.7588 16.4062C32.7588 20.8229 31.3734 24.2292 28.6025 26.625C25.8525 29 21.9046 30.1875 16.7588 30.1875H6.04004ZM6.04004 25.2812H16.8213C20.0296 25.2812 22.488 24.5312 24.1963 23.0312C25.9046 21.5104 26.7588 19.3229 26.7588 16.4688C26.7588 13.7604 25.9046 11.5938 24.1963 9.96875C22.488 8.34375 20.1442 7.5 17.165 7.4375H6.04004V25.2812Z" fill="#9F9F9F"/>
<path d="M53.1025 48.625C48.5192 48.625 44.79 47.125 41.915 44.125C39.04 41.1042 37.6025 37.0729 37.6025 32.0312V30.9688C37.6025 27.6146 38.238 24.625 39.5088 22C40.8005 19.3542 42.5921 17.2917 44.8838 15.8125C47.1963 14.3125 49.6963 13.5625 52.3838 13.5625C56.7796 13.5625 60.1963 15.0104 62.6338 17.9062C65.0713 20.8021 66.29 24.9479 66.29 30.3438V32.75H43.3838C43.4671 36.0833 44.4359 38.7812 46.29 40.8438C48.165 42.8854 50.54 43.9062 53.415 43.9062C55.4567 43.9062 57.1859 43.4896 58.6025 42.6562C60.0192 41.8229 61.2588 40.7188 62.3213 39.3438L65.8525 42.0938C63.0192 46.4479 58.7692 48.625 53.1025 48.625ZM52.3838 18.3125C50.0505 18.3125 48.0921 19.1667 46.5088 20.875C44.9255 22.5625 43.9463 24.9375 43.5713 28H60.5088V27.5625C60.3421 24.625 59.5505 22.3542 58.1338 20.75C56.7171 19.125 54.8005 18.3125 52.3838 18.3125Z" fill="#9F9F9F"/>
<path d="M89.3525 19.375C88.4775 19.2292 87.5296 19.1562 86.5088 19.1562C82.7171 19.1562 80.1442 20.7708 78.79 24V48H73.0088V14.1875H78.6338L78.7275 18.0938C80.6234 15.0729 83.3109 13.5625 86.79 13.5625C87.915 13.5625 88.7692 13.7083 89.3525 14V19.375Z" fill="#9F9F9F"/>
<path d="M100.165 14.1875L100.353 18.4375C102.936 15.1875 106.311 13.5625 110.478 13.5625C117.623 13.5625 121.228 17.5938 121.29 25.6562V48H115.509V25.625C115.488 23.1875 114.925 21.3854 113.821 20.2188C112.738 19.0521 111.04 18.4688 108.728 18.4688C106.853 18.4688 105.207 18.9688 103.79 19.9688C102.373 20.9688 101.269 22.2812 100.478 23.9062V48H94.6963V14.1875H100.165Z" fill="#9F9F9F"/>
<path d="M136.29 48H130.509V14.1875H136.29V48ZM130.04 5.21875C130.04 4.28125 130.321 3.48958 130.884 2.84375C131.467 2.19792 132.321 1.875 133.446 1.875C134.571 1.875 135.425 2.19792 136.009 2.84375C136.592 3.48958 136.884 4.28125 136.884 5.21875C136.884 6.15625 136.592 6.9375 136.009 7.5625C135.425 8.1875 134.571 8.5 133.446 8.5C132.321 8.5 131.467 8.1875 130.884 7.5625C130.321 6.9375 130.04 6.15625 130.04 5.21875Z" fill="#9F9F9F"/>
<path d="M155.009 32.3438L151.384 36.125V48H145.603V0H151.384V29.0312L154.478 25.3125L165.009 14.1875H172.04L158.884 28.3125L173.571 48H166.79L155.009 32.3438Z" fill="#9F9F9F"/>
</svg>
