<svg width="183" height="69" viewBox="0 0 183 69" fill="none" xmlns="http://www.w3.org/2000/svg">
<path d="M27.2 28.224C29.8027 28.7787 31.8933 30.08 33.472 32.128C35.0507 34.1333 35.84 36.4373 35.84 39.04C35.84 42.7947 34.5173 45.7813 31.872 48C29.2693 50.176 25.6213 51.264 20.928 51.264H0V6.336H20.224C24.7893 6.336 28.352 7.38134 30.912 9.472C33.5147 11.5627 34.816 14.4 34.816 17.984C34.816 20.6293 34.112 22.8267 32.704 24.576C31.3387 26.3253 29.504 27.5413 27.2 28.224ZM10.944 24.512H18.112C19.904 24.512 21.2693 24.128 22.208 23.36C23.1893 22.5493 23.68 21.376 23.68 19.84C23.68 18.304 23.1893 17.1307 22.208 16.32C21.2693 15.5093 19.904 15.104 18.112 15.104H10.944V24.512ZM19.008 42.432C20.8427 42.432 22.2507 42.0267 23.232 41.216C24.256 40.3627 24.768 39.1467 24.768 37.568C24.768 35.9893 24.2347 34.752 23.168 33.856C22.144 32.96 20.7147 32.512 18.88 32.512H10.944V42.432H19.008Z" fill="#9F9F9F"/>
<path d="M40.0115 33.344C40.0115 29.6747 40.6942 26.4533 42.0595 23.68C43.4675 20.9067 45.3662 18.7733 47.7555 17.28C50.1448 15.7867 52.8115 15.04 55.7555 15.04C58.2728 15.04 60.4702 15.552 62.3475 16.576C64.2675 17.6 65.7395 18.944 66.7635 20.608V15.552H77.7075V51.264H66.7635V46.208C65.6968 47.872 64.2035 49.216 62.2835 50.24C60.4062 51.264 58.2088 51.776 55.6915 51.776C52.7902 51.776 50.1448 51.0293 47.7555 49.536C45.3662 48 43.4675 45.8453 42.0595 43.072C40.6942 40.256 40.0115 37.0133 40.0115 33.344ZM66.7635 33.408C66.7635 30.6773 65.9955 28.5227 64.4595 26.944C62.9662 25.3653 61.1315 24.576 58.9555 24.576C56.7795 24.576 54.9235 25.3653 53.3875 26.944C51.8942 28.48 51.1475 30.6133 51.1475 33.344C51.1475 36.0747 51.8942 38.2507 53.3875 39.872C54.9235 41.4507 56.7795 42.24 58.9555 42.24C61.1315 42.24 62.9662 41.4507 64.4595 39.872C65.9955 38.2933 66.7635 36.1387 66.7635 33.408Z" fill="#9F9F9F"/>
<path d="M91.065 11.84C89.145 11.84 87.5663 11.2853 86.329 10.176C85.1343 9.024 84.537 7.616 84.537 5.952C84.537 4.24534 85.1343 2.83734 86.329 1.728C87.5663 0.576 89.145 0 91.065 0C92.9423 0 94.4783 0.576 95.673 1.728C96.9103 2.83734 97.529 4.24534 97.529 5.952C97.529 7.616 96.9103 9.024 95.673 10.176C94.4783 11.2853 92.9423 11.84 91.065 11.84ZM96.569 55.872C96.569 60.2667 95.4597 63.424 93.241 65.344C91.0223 67.3067 87.929 68.288 83.961 68.288H79.673V59.008H82.297C83.4917 59.008 84.345 58.7733 84.857 58.304C85.369 57.8347 85.625 57.0667 85.625 56V15.552H96.569V55.872Z" fill="#9F9F9F"/>
<path d="M139.702 15.552V51.264H128.758V46.4C127.648 47.9787 126.133 49.2587 124.214 50.24C122.336 51.1787 120.245 51.648 117.941 51.648C115.211 51.648 112.8 51.0507 110.71 49.856C108.619 48.6187 106.997 46.848 105.845 44.544C104.693 42.24 104.118 39.5307 104.118 36.416V15.552H114.997V34.944C114.997 37.3333 115.616 39.1893 116.854 40.512C118.091 41.8347 119.755 42.496 121.846 42.496C123.979 42.496 125.664 41.8347 126.902 40.512C128.139 39.1893 128.758 37.3333 128.758 34.944V15.552H139.702Z" fill="#9F9F9F"/>
<path d="M182.827 15.552V51.264H171.883V46.4C170.773 47.9787 169.258 49.2587 167.339 50.24C165.461 51.1787 163.37 51.648 161.066 51.648C158.336 51.648 155.925 51.0507 153.835 49.856C151.744 48.6187 150.122 46.848 148.971 44.544C147.819 42.24 147.242 39.5307 147.242 36.416V15.552H158.122V34.944C158.122 37.3333 158.741 39.1893 159.979 40.512C161.216 41.8347 162.88 42.496 164.971 42.496C167.104 42.496 168.789 41.8347 170.027 40.512C171.264 39.1893 171.883 37.3333 171.883 34.944V15.552H182.827Z" fill="#9F9F9F"/>
</svg>
