<svg width="112" height="36" viewBox="0 0 112 36" fill="none" xmlns="http://www.w3.org/2000/svg">
<path d="M52.592 12.44V15.848H58.088V19.016H52.592V22.712H58.808V26H48.488V9.152H58.808V12.44H52.592ZM65.5764 8.24V26H61.4724V8.24H65.5764ZM72.6545 8.24V26H68.5505V8.24H72.6545ZM77.6926 11.216C76.9726 11.216 76.3806 11.008 75.9166 10.592C75.4686 10.16 75.2446 9.632 75.2446 9.008C75.2446 8.368 75.4686 7.84 75.9166 7.424C76.3806 6.992 76.9726 6.776 77.6926 6.776C78.3966 6.776 78.9726 6.992 79.4206 7.424C79.8846 7.84 80.1166 8.368 80.1166 9.008C80.1166 9.632 79.8846 10.16 79.4206 10.592C78.9726 11.008 78.3966 11.216 77.6926 11.216ZM79.7326 12.608V26H75.6286V12.608H79.7326ZM96.3868 12.608L87.9868 32.36H83.5708L86.6428 25.544L81.1947 12.608H85.7788L88.8748 20.984L91.9468 12.608H96.3868ZM110.495 19.088C110.495 19.472 110.471 19.872 110.423 20.288H101.135C101.199 21.12 101.463 21.76 101.927 22.208C102.407 22.64 102.991 22.856 103.679 22.856C104.703 22.856 105.415 22.424 105.815 21.56H110.183C109.959 22.44 109.551 23.232 108.959 23.936C108.383 24.64 107.655 25.192 106.775 25.592C105.895 25.992 104.911 26.192 103.823 26.192C102.511 26.192 101.343 25.912 100.319 25.352C99.2948 24.792 98.4948 23.992 97.9188 22.952C97.3428 21.912 97.0548 20.696 97.0548 19.304C97.0548 17.912 97.3348 16.696 97.8948 15.656C98.4708 14.616 99.2708 13.816 100.295 13.256C101.319 12.696 102.495 12.416 103.823 12.416C105.119 12.416 106.271 12.688 107.279 13.232C108.287 13.776 109.071 14.552 109.631 15.56C110.207 16.568 110.495 17.744 110.495 19.088ZM106.295 18.008C106.295 17.304 106.055 16.744 105.575 16.328C105.095 15.912 104.495 15.704 103.775 15.704C103.087 15.704 102.503 15.904 102.023 16.304C101.559 16.704 101.271 17.272 101.159 18.008H106.295Z" fill="white"/>
<circle cx="12" cy="18" r="11.5" fill="white" stroke="#393D46"/>
<circle cx="27" cy="18" r="10" fill="white" stroke="#393D46" stroke-width="4"/>
</svg>
